
        <svg xmlns="http://www.w3.org/2000/svg" xmlns:xlink="http://www.w3.org/1999/xlink" version="1.1" width="3181.8181818181824" 
        height="2081.818181818182" viewBox="0 0 3181.8181818181824 2081.818181818182">
			
			<g transform="scale(9.090909090909092) translate(10, 10)">
				<defs id="SvgjsDefs1390"></defs><g id="SvgjsG1391" featureKey="rZF8Vg-0" transform="matrix(1.679480082825922,0,0,1.679480082825922,88.75509493460032,-6.540581850821083)" fill="#ff7e67"><g xmlns="http://www.w3.org/2000/svg"><path d="M6,13.1c0.2,0,0.4,0.1,0.5,0.1c0.4,8.7,1,17.3,1,26c0,4.6-0.1,9.2-0.4,13.8C7,58,6.1,63,5.7,68.1c-0.1,1.5,1.3,2.6,2.7,2.7   c6.3,0.5,12.5,2.1,18.2,4.8c2.5,1.2,4.9,2.5,7.2,4c2.4,1.6,4.7,3.8,7.3,5c2.1,1,4.2,0.6,6.3-0.3c3.4-1.5,6.7-3.3,10-5   c6.1-3.1,12.2-6.2,18.3-9.3c2.3-1.2,5.2-2.2,7.1-4.1c2.1-2.1,2.1-5.1,2.2-7.8c0.3-7,0.6-14,0.9-21c0.3-7,0.6-14,1-21   c0.2-4.1,1.1-11.1-4.4-12.1c-3-0.6-6.3,1.5-9,2.7C70.3,8,67,9.5,63.7,11c-6.4,3.1-12.7,6.5-18.8,10.1C33.3,14.5,20.8,9.7,7.7,7   C3.7,6.2,2,12.4,6,13.1z M46.5,27.1c9.6-5.8,19.7-11.1,30-15.5c1.1-0.5,2.5-1.4,3.7-1.5c1.4-0.2,1.1-0.5,1.2,0.9   c0.3,2.9-0.2,6-0.3,8.9c-0.2,5.7-0.5,11.5-0.7,17.2c-0.2,5.9-0.5,11.9-0.8,17.8c-0.1,2.6,0.4,6.1-1.8,7.7c-2.3,1.6-5.3,2.7-7.8,3.9   c-5.4,2.7-10.7,5.4-16.1,8.1c-2.5,1.3-5,2.5-7.4,3.8c-0.4,0.2-0.8,0.4-1.1,0.6c0-0.1,0-0.1,0-0.2c0.4-2.5,0-5.3,0-7.8   c0-3.2,0-6.4,0-9.6c-0.1-11.3,0.1-22.6-0.7-33.9C45.3,27.5,45.9,27.4,46.5,27.1z M42.7,26.6c-0.5,8.6-0.4,17.2-0.6,25.7   c-0.1,4.5-0.2,9-0.3,13.5c-0.1,2.1-0.1,4.3-0.2,6.4c0,1.3,0,2.6-0.1,3.8c-0.1,0.5-0.1,1-0.2,1.5c-0.1,0.1-0.1,0.2-0.1,0.3   c-0.6-0.5-1.1-0.9-1.7-1.3c-8.4-5.9-18.1-9.6-28.2-10.9c0.6-9,0.3-18.2,0.1-27.1c-0.2-8.2-0.6-16.5-1.7-24.7   C21.2,16.4,32.3,20.7,42.7,26.6z"></path><path d="M50.4,39.2c4.5-1.1,8.8-3.2,13.1-4.9c4.1-1.6,8.3-3.1,12.2-5c1.8-0.8,0.5-3.9-1.4-3.2c-4.1,1.6-8.1,3.5-12.1,5.3   c-4.2,1.9-8.7,3.6-12.6,6C48.7,38,49.3,39.5,50.4,39.2z"></path><path d="M48.6,50.9c6.2-2.1,12.6-4.5,18.4-7.5c1.4-0.7,0.4-3-1.1-2.5c-6.1,2.2-12.3,5.3-18,8.4C47,49.7,47.6,51.2,48.6,50.9z"></path><path d="M70.9,51.6c-4.7,1.5-9.2,4.7-13.3,7.4c-2.5,1.6-5.5,3.4-7.5,5.4c-0.5,0.5-0.1,1.1,0.5,1.2c0.8,0.1,1.6-0.5,2.3-0.9   c1.8-1,3.6-2.1,5.3-3.2c4.5-2.7,9.2-5,13.9-7.3C73.5,53.5,72.5,51.1,70.9,51.6z"></path><path d="M19.4,27.8c6.8,0.5,12.7,3,18.4,6.7c2,1.3,4-2.1,1.9-3.3c-6-3.4-13.5-6.8-20.6-5.4C18,26,18.4,27.7,19.4,27.8z"></path><path d="M24.6,36.8c-1.4-0.2-2,1.9-0.6,2.2c3.9,0.7,7.4,2.2,10.8,4.3c1.5,1,2.9-1.5,1.4-2.4C32.6,38.8,28.7,37.4,24.6,36.8z"></path><path d="M16.5,52.6c3.4,1.5,6.9,2.9,10.3,4.7c3.4,1.7,6.3,4.1,9.5,6c1.6,1,3.5-1.4,2.1-2.7c-5.7-5.2-13.8-7.8-21-10   C16.2,50.3,15.4,52.1,16.5,52.6z"></path></g></g><g id="SvgjsG1392" featureKey="6VBqdG-0" transform="matrix(1.1740430331746763,0,0,1.1740430331746763,-1.408851415878674,150.35491773103078)" fill="#07689f"><path d="M3.4 17.96 l5.94 0 l0 2.04 l-8.14 0 l0 -14 l2.2 0 l0 11.96 z M16.020000000000003 9.42 c2.36 0 5.56 1.8 5.06 6.16 l-8.28 0 c0.32 1.86 1.8 2.78 3.48 2.78 c1.38 0 2.12 -0.36 2.88 -0.96 l1.22 1.16 c-0.92 1.04 -2.24 1.64 -4.16 1.64 c-2.64 0 -5.58 -1.8 -5.58 -5.38 c0 -3.6 3.02 -5.4 5.38 -5.4 z M16.020000000000003 11.28 c-1.34 0 -2.84 0.9 -3.2 2.72 l6.36 0 c-0.24 -1.82 -1.82 -2.72 -3.16 -2.72 z M27.720000000000002 9.42 c1.88 0 3.12 1.12 3.38 1.8 l0 -1.62 l2.16 0 l0 10.4 l-2.16 0 l0 -1.72 c-0.26 0.84 -1.5 1.92 -3.38 1.92 c-2.36 0 -5.18 -1.76 -5.18 -5.4 c0 -3.58 2.82 -5.38 5.18 -5.38 z M28.000000000000004 11.34 c-1.62 0 -3.36 1.16 -3.36 3.46 c0 2.32 1.74 3.48 3.36 3.48 s3.2 -1.14 3.2 -3.48 c0 -2.32 -1.58 -3.46 -3.2 -3.46 z M41.36 9.44 c0.22 0 0.42 0 0.62 0.04 l0 2.06 c-0.2 -0.04 -0.4 -0.04 -0.56 -0.04 c-1.96 0 -3.56 1.4 -3.8 3.6 l0 4.9 l-2.16 0 l0 -10.4 l2.16 0 l0 2.66 c0.44 -1.54 1.78 -2.82 3.74 -2.82 z M49.4 9.44 c2 0 3.96 1.3 3.96 4.54 l0 6.02 l-2.16 0 l0 -5.9 c0 -1.98 -0.94 -2.76 -2.28 -2.76 c-1.72 0 -2.84 1.6 -3.08 2.62 l0 6.04 l-2.16 0 l0 -10.4 l2.16 0 l0 2.2 c0.2 -0.64 1.4 -2.36 3.56 -2.36 z M57.519999999999996 5.859999999999999 l0 1.88 l-2.16 0 l0 -1.88 l2.16 0 z M57.519999999999996 9.6 l0 10.4 l-2.16 0 l0 -10.4 l2.16 0 z M65.44 9.44 c2 0 3.96 1.3 3.96 4.54 l0 6.02 l-2.16 0 l0 -5.9 c0 -1.98 -0.94 -2.76 -2.28 -2.76 c-1.72 0 -2.84 1.6 -3.08 2.62 l0 6.04 l-2.16 0 l0 -10.4 l2.16 0 l0 2.2 c0.2 -0.64 1.4 -2.36 3.56 -2.36 z M79.56 9.6 l2.16 0 l0 10.4 c0 3.14 -2.9 4.12 -5.02 4.12 c-1.42 0 -2.44 -0.34 -2.98 -0.7 l0 -1.8 c0.54 0.36 1.54 0.68 2.98 0.68 c1.82 0 2.86 -0.98 2.86 -2.3 l0 -1.72 c-0.26 0.84 -1.5 1.92 -3.38 1.92 c-2.36 0 -5.18 -1.76 -5.18 -5.4 c0 -3.58 2.82 -5.38 5.18 -5.38 c1.88 0 3.12 1.12 3.38 1.8 l0 -1.62 z M76.46 18.28 c1.62 0 3.2 -1.14 3.2 -3.48 c0 -2.32 -1.58 -3.46 -3.2 -3.46 s-3.36 1.16 -3.36 3.46 c0 2.32 1.74 3.48 3.36 3.48 z M92.22 17.96 l6.34 0 l0 2.04 l-6.74 0 l-1.8 0 l0 -14 l2.2 0 l6.16 0 l0 2.04 l-6.16 0 l0 3.92 l4.74 0 l0 2 l-4.74 0 l0 4 z M108.03999999999999 20 l-2.74 -3.74 l-2.74 3.74 l-2.5 0 l4 -5.32 l-3.7 -5.08 l2.46 0 l2.48 3.5 l2.48 -3.5 l2.46 0 l-3.7 5.08 l4 5.32 l-2.5 0 z M117.77999999999999 9.42 c2.36 0 5.18 1.8 5.18 5.38 c0 3.64 -2.82 5.4 -5.18 5.4 c-1.88 0 -3.12 -1.08 -3.38 -1.92 l0 5.52 l-2.16 0 l0 -6.34 l0 -7.86 l2.16 0 l0 1.62 c0.26 -0.68 1.5 -1.8 3.38 -1.8 z M117.49999999999999 18.28 c1.62 0 3.36 -1.16 3.36 -3.48 c0 -2.3 -1.74 -3.46 -3.36 -3.46 s-3.2 1.14 -3.2 3.46 c0 2.34 1.58 3.48 3.2 3.48 z M129.73999999999998 9.42 c2.36 0 5.56 1.8 5.06 6.16 l-8.28 0 c0.32 1.86 1.8 2.78 3.48 2.78 c1.38 0 2.12 -0.36 2.88 -0.96 l1.22 1.16 c-0.92 1.04 -2.24 1.64 -4.16 1.64 c-2.64 0 -5.58 -1.8 -5.58 -5.38 c0 -3.6 3.02 -5.4 5.38 -5.4 z M129.73999999999998 11.28 c-1.34 0 -2.84 0.9 -3.2 2.72 l6.36 0 c-0.24 -1.82 -1.82 -2.72 -3.16 -2.72 z M142.55999999999997 9.44 c0.22 0 0.42 0 0.62 0.04 l0 2.06 c-0.2 -0.04 -0.4 -0.04 -0.56 -0.04 c-1.96 0 -3.56 1.4 -3.8 3.6 l0 4.9 l-2.16 0 l0 -10.4 l2.16 0 l0 2.66 c0.44 -1.54 1.78 -2.82 3.74 -2.82 z M147.03999999999996 5.859999999999999 l0 1.88 l-2.16 0 l0 -1.88 l2.16 0 z M147.03999999999996 9.6 l0 10.4 l-2.16 0 l0 -10.4 l2.16 0 z M154.22 9.42 c2.36 0 5.56 1.8 5.06 6.16 l-8.28 0 c0.32 1.86 1.8 2.78 3.48 2.78 c1.38 0 2.12 -0.36 2.88 -0.96 l1.22 1.16 c-0.92 1.04 -2.24 1.64 -4.16 1.64 c-2.64 0 -5.58 -1.8 -5.58 -5.38 c0 -3.6 3.02 -5.4 5.38 -5.4 z M154.22 11.28 c-1.34 0 -2.84 0.9 -3.2 2.72 l6.36 0 c-0.24 -1.82 -1.82 -2.72 -3.16 -2.72 z M166.85999999999999 9.44 c2 0 3.96 1.3 3.96 4.54 l0 6.02 l-2.16 0 l0 -5.9 c0 -1.98 -0.94 -2.76 -2.28 -2.76 c-1.72 0 -2.84 1.6 -3.08 2.62 l0 6.04 l-2.16 0 l0 -10.4 l2.16 0 l0 2.2 c0.2 -0.64 1.4 -2.36 3.56 -2.36 z M177.8 9.42 c1.88 0 3.5 0.84 4.44 2.52 l-1.68 0.76 c-0.62 -0.84 -1.46 -1.36 -2.74 -1.36 c-1.54 0 -3.3 1.16 -3.3 3.48 c0 2.3 1.76 3.44 3.3 3.44 c1.28 0 2.12 -0.5 2.74 -1.34 l1.7 0.76 c-0.96 1.68 -2.56 2.5 -4.46 2.5 c-2.36 0 -5.38 -1.74 -5.38 -5.36 c0 -3.6 3.02 -5.4 5.38 -5.4 z M188.54000000000002 9.42 c2.36 0 5.56 1.8 5.06 6.16 l-8.28 0 c0.32 1.86 1.8 2.78 3.48 2.78 c1.38 0 2.12 -0.36 2.88 -0.96 l1.22 1.16 c-0.92 1.04 -2.24 1.64 -4.16 1.64 c-2.64 0 -5.58 -1.8 -5.58 -5.38 c0 -3.6 3.02 -5.4 5.38 -5.4 z M188.54000000000002 11.28 c-1.34 0 -2.84 0.9 -3.2 2.72 l6.36 0 c-0.24 -1.82 -1.82 -2.72 -3.16 -2.72 z M206.26000000000002 6 c3.14 0 5.06 1.92 5.06 4.62 s-1.92 4.5 -5.06 4.5 l-2.5 0 l0 4.88 l-2.2 0 l0 -14 l4.7 0 z M206.16000000000003 13.2 c1.78 0 2.96 -0.84 2.96 -2.58 s-1.18 -2.58 -2.96 -2.58 l-2.4 0 l0 5.16 l2.4 0 z M215.28 5.859999999999999 l0 14.14 l-2.16 0 l0 -14.14 l2.16 0 z M222.26000000000002 9.42 c1.88 0 3.12 1.12 3.38 1.8 l0 -1.62 l2.16 0 l0 10.4 l-2.16 0 l0 -1.72 c-0.26 0.84 -1.5 1.92 -3.38 1.92 c-2.36 0 -5.18 -1.76 -5.18 -5.4 c0 -3.58 2.82 -5.38 5.18 -5.38 z M222.54000000000002 11.34 c-1.62 0 -3.36 1.16 -3.36 3.46 c0 2.32 1.74 3.48 3.36 3.48 s3.2 -1.14 3.2 -3.48 c0 -2.32 -1.58 -3.46 -3.2 -3.46 z M235.30000000000004 11.4 l-2.2 0 l0 5.82 c0 0.56 0.2 1 0.84 1 c0.54 0 0.92 -0.1 1.36 -0.28 l0 1.82 c-0.44 0.22 -1.02 0.36 -1.92 0.36 c-1.3 0 -2.44 -0.52 -2.44 -2.82 l0 -5.9 l-1.44 0 l0 -1.8 l1.44 0 l0 -2.44 l2.16 0 l0 2.44 l2.2 0 l0 1.8 z M241.18000000000004 7.460000000000001 c-1.02 0 -1.38 0.64 -1.38 1.54 l0 0.6 l2.68 0 l0 1.8 l-2.68 0 l0 8.6 l-2.16 0 l0 -8.6 l-1.24 0 l0 -1.8 l1.24 0 l0 -0.6 c0 -2.9 2.02 -3.34 3.32 -3.34 c0.92 0 1.78 0.24 2.42 0.64 l-0.76 1.5 c-0.5 -0.22 -0.88 -0.34 -1.44 -0.34 z M249.96000000000004 9.42 c2.36 0 5.38 1.8 5.38 5.4 c0 3.62 -3.02 5.38 -5.38 5.38 s-5.38 -1.76 -5.38 -5.38 c0 -3.6 3.02 -5.4 5.38 -5.4 z M249.96000000000004 11.34 c-1.52 0 -3.28 1.16 -3.28 3.48 c0 2.3 1.76 3.46 3.28 3.46 s3.28 -1.16 3.28 -3.46 c0 -2.32 -1.76 -3.48 -3.28 -3.48 z M263.04 9.44 c0.22 0 0.42 0 0.62 0.04 l0 2.06 c-0.2 -0.04 -0.4 -0.04 -0.56 -0.04 c-1.96 0 -3.56 1.4 -3.8 3.6 l0 4.9 l-2.16 0 l0 -10.4 l2.16 0 l0 2.66 c0.44 -1.54 1.78 -2.82 3.74 -2.82 z M278.30000000000007 9.44 c2 0 3.98 1.28 3.98 4.66 l0 5.9 l-2.16 0 l0 -5.9 c0 -1.78 -0.9 -2.76 -2.42 -2.76 c-1.58 0 -2.54 1.32 -2.8 2.62 l0 6.04 l-2.16 0 l0 -5.9 c0 -1.78 -1.1 -2.76 -2.44 -2.76 c-1.66 0 -2.56 1.32 -2.78 2.62 l0 6.04 l-2.16 0 l0 -10.4 l2.16 0 l0 2.26 c0.08 -0.66 1.1 -2.42 3.28 -2.42 c1.42 0 2.98 0.78 3.7 2.5 c0.32 -0.9 1.56 -2.5 3.8 -2.5 z"></path></g><g id="SvgjsG1393" featureKey="rMoqOW-0" transform="matrix(1.4285713312577295,0,0,1.4285713312577295,117.28571467496909,180.4285733748454)" fill="#ff7e67"><path d="M3.82 17.58 l5.68 0 l0 2.42 l-8.3 0 l0 -14 l2.62 0 l0 11.58 z M39.168000000000006 20 l-3.08 0 l-3.26 -4.82 l-3.24 4.82 l-3.1 0 l4.78 -7.1 l-4.68 -6.9 l3.08 0 l3.14 4.62 l3.1 -4.62 l3.08 0 l-4.64 6.9 z M61.176 6 c3.14 0 5.12 1.92 5.12 4.7 s-1.98 4.54 -5.12 4.54 l-2.2 0 l0 4.76 l-2.62 0 l0 -14 l4.82 0 z M61.03600000000001 12.98 c1.58 0 2.64 -0.68 2.64 -2.28 c0 -1.58 -1.06 -2.28 -2.64 -2.28 l-2.06 0 l0 4.56 l2.06 0 z"></path></g>
			</g>
		</svg>
	