<svg xmlns="http://www.w3.org/2000/svg" width="768" height="768" viewBox="0 0 768 768" version="1.1">
	<path fill-opacity="0.165" d="M 429 144.972 C 419.375 148.190, 405.875 152.921, 399 155.485 C 392.125 158.049, 375.025 163.982, 361 168.670 C 346.975 173.358, 331.675 178.668, 327 180.470 C 315.093 185.059, 294.204 192.320, 283.265 195.671 C 274.835 198.253, 274.030 198.718, 274.030 201 C 274.031 202.477, 274.335 203.021, 274.775 202.329 C 275.185 201.685, 276.866 200.850, 278.510 200.472 C 280.155 200.095, 288.700 197.523, 297.500 194.758 C 306.300 191.992, 314.684 189.522, 316.132 189.269 C 319.434 188.690, 320.828 190.619, 317.765 191.528 C 314.016 192.641, 296.716 199.021, 293.500 200.477 C 288.845 202.584, 277.859 205.196, 275.855 204.672 C 272.966 203.917, 272.554 209.448, 273.858 231.500 C 274.509 242.500, 275.030 259.825, 275.017 270 C 275.004 280.175, 275.436 291.425, 275.977 295 C 277.881 307.593, 277.714 308.241, 270.750 315.277 C 262.315 323.799, 255.822 335.081, 250.483 350.494 C 242.248 374.264, 239.095 392.993, 238.108 424 C 237.547 441.598, 237 448.073, 235.930 449.781 C 233.505 453.648, 235.836 454.190, 252.500 453.628 C 268.804 453.078, 283.687 450.079, 293.437 445.380 C 296.153 444.071, 300.004 443, 301.996 443 C 309.491 443, 309.440 443.180, 310 415.233 C 310.359 397.354, 310.855 389.875, 311.754 388.794 C 312.828 387.501, 312.538 381, 311.406 381 C 311.216 381, 309.266 381.936, 307.071 383.080 C 300.015 386.758, 296.287 384.139, 290.181 371.217 C 284.880 359.996, 283 352.506, 283 342.606 C 283 332.414, 285.319 327.062, 290.808 324.587 C 293.615 323.321, 295.225 323.135, 297.126 323.858 C 302.821 326.023, 310.222 338.639, 311.945 349.118 C 313.523 358.720, 315.076 386.622, 314.168 389.075 C 313.333 391.333, 313.968 397.998, 316.573 414.297 C 320.233 437.194, 333.444 459.664, 357.153 483.320 C 363.669 489.821, 369 495.607, 369 496.177 C 369 496.747, 369.710 496.941, 370.578 496.608 C 371.489 496.259, 374.976 497.643, 378.828 499.882 C 389.160 505.889, 403.764 513, 405.769 513 C 409.169 513, 420.451 519.613, 422.500 522.806 C 423.600 524.520, 424.973 525.940, 425.552 525.961 C 426.130 525.983, 427.559 523.738, 428.726 520.974 C 430.329 517.181, 431.589 515.690, 433.865 514.897 C 436.752 513.891, 440.971 509.340, 442.255 505.846 C 442.590 504.937, 445.794 502.750, 449.376 500.986 C 452.958 499.223, 456.659 496.930, 457.600 495.890 C 458.540 494.851, 459.625 494, 460.010 494 C 460.394 494, 461.022 500.035, 461.405 507.412 C 461.787 514.788, 462.348 522.100, 462.650 523.662 C 462.952 525.223, 463.304 528.300, 463.432 530.500 C 463.559 532.700, 463.910 535.175, 464.211 536 C 464.512 536.825, 466.412 543.350, 468.434 550.500 C 472.215 563.877, 484.318 601.940, 485.922 605.500 C 486.418 606.600, 488.510 612.570, 490.573 618.768 L 494.322 630.035 517.911 629.768 C 538.270 629.537, 541.454 629.295, 541.165 628 C 540.981 627.175, 538.836 618.850, 536.398 609.500 C 533.960 600.150, 530.127 583.500, 527.879 572.500 C 524.412 555.533, 523.895 551.457, 524.469 545.625 C 525.245 537.741, 528.198 525.349, 530.695 519.500 C 535.037 509.330, 542.359 502.423, 546.401 504.685 C 547.315 505.196, 553.221 510.456, 559.525 516.373 C 565.830 522.290, 570.690 526.314, 570.325 525.316 C 569.657 523.482, 564.141 514.924, 563.032 514 C 562.702 513.725, 560.647 511.287, 558.466 508.582 C 556.285 505.877, 552.322 501.940, 549.660 499.832 C 545.783 496.762, 543.983 496, 540.610 496 C 538.295 496, 535.972 495.583, 535.450 495.074 C 533.844 493.509, 484.904 470.848, 478.047 468.495 C 474.497 467.276, 471.444 465.832, 471.261 465.284 C 470.926 464.279, 478.590 463.659, 507.169 462.376 C 515.237 462.015, 522.407 461.366, 523.103 460.936 C 524.096 460.322, 523.685 456.850, 521.194 444.827 C 516.513 422.230, 503.584 389.766, 492.654 373.168 C 490.239 369.500, 487.712 365.439, 487.039 364.143 C 486.366 362.846, 485.472 362.171, 485.052 362.643 C 484.633 363.114, 483.327 368.450, 482.151 374.500 C 478.312 394.234, 473.719 412.161, 472.851 410.793 C 472.400 410.082, 472.024 408.285, 472.015 406.799 C 471.985 401.447, 469.774 393.885, 467.422 391.090 C 466.103 389.522, 463.331 387.461, 461.262 386.510 C 459.193 385.560, 456.236 384.177, 454.691 383.438 C 452.207 382.250, 451.424 382.332, 447.941 384.148 C 443.310 386.561, 439.162 386.375, 428 383.250 C 412.140 378.810, 406.875 378.242, 411.252 381.442 C 414.560 383.861, 412.979 384.724, 404.250 385.261 C 387.209 386.310, 381.100 391.465, 374.043 410.750 C 372.785 414.188, 371.373 417, 370.904 417 C 370.435 417, 369.305 415.556, 368.392 413.791 C 367.480 412.027, 362.396 406.064, 357.095 400.541 C 338.859 381.542, 329.629 367.409, 327.973 355.951 C 326.497 345.742, 326.752 317.530, 328.354 313.695 C 329.099 311.913, 332.136 307.540, 335.104 303.977 L 340.500 297.500 340.500 288.500 L 340.500 279.500 348 277.846 C 353.348 276.666, 360.778 276.164, 373.893 276.096 C 389.407 276.015, 395.640 276.478, 413.728 279.055 C 434.680 282.041, 435.347 282.075, 442.805 280.532 C 447.003 279.664, 454.619 277.614, 459.731 275.977 C 464.842 274.340, 470.031 272.997, 471.262 272.993 C 473.879 272.986, 479.328 269.661, 478.341 268.675 C 476.193 266.527, 461.092 268.614, 444.629 273.334 C 438.696 275.035, 434.226 275.732, 431.129 275.440 C 428.583 275.199, 419.975 274.353, 412 273.560 C 398.047 272.173, 368.555 270.525, 362.648 270.802 C 352.350 271.285, 335.079 273.235, 328.854 274.617 C 324.809 275.516, 320.150 276.456, 318.500 276.706 L 315.500 277.161 318.750 274.508 C 320.538 273.049, 322 271.127, 322 270.238 C 322 267.432, 330.124 255.040, 333.125 253.267 C 334.706 252.333, 336 251.216, 336 250.784 C 336 250.353, 336.337 250.071, 336.750 250.159 C 337.793 250.380, 341.278 248.827, 342.592 247.556 C 343.192 246.975, 345.183 245.375, 347.016 244 C 354.656 238.270, 364.635 230.423, 366.500 228.679 C 369.490 225.883, 386.722 217.998, 389.810 218.012 C 391.290 218.019, 396.550 219.155, 401.500 220.536 C 406.450 221.917, 413.533 223.747, 417.239 224.601 C 420.945 225.456, 424.234 226.570, 424.548 227.078 C 425.737 229.001, 429.845 227.824, 440.763 222.434 C 453.917 215.940, 457.609 215.065, 461.690 217.476 C 464.480 219.124, 464.932 219.078, 475.039 216.108 C 480.792 214.417, 490.900 211.203, 497.500 208.966 C 504.100 206.729, 515.025 203.046, 521.777 200.781 C 528.530 198.517, 533.910 196.177, 533.734 195.582 C 533.558 194.987, 525.333 189.135, 515.457 182.578 C 505.581 176.021, 486.813 163.534, 473.751 154.828 C 460.689 146.123, 449.214 139.027, 448.251 139.060 C 447.288 139.094, 438.625 141.754, 429 144.972 M 438.558 145.907 C 438.249 146.405, 438.898 146.578, 439.999 146.290 C 442.334 145.679, 442.629 145, 440.559 145 C 439.766 145, 438.866 145.408, 438.558 145.907 M 432.441 148.555 C 430.531 150.085, 430.532 150.096, 432.500 149.190 C 433.600 148.684, 435.175 148.020, 436 147.714 C 437.296 147.234, 437.288 147.147, 435.941 147.079 C 435.084 147.036, 433.509 147.700, 432.441 148.555 M 424 152 C 424 152.550, 422.538 153.007, 420.750 153.015 C 418.798 153.025, 417.992 153.343, 418.732 153.813 C 419.476 154.286, 417.499 155.110, 413.732 155.897 C 410.304 156.613, 406.131 157.806, 404.458 158.548 C 402.785 159.289, 399.635 160.334, 397.458 160.870 C 395.281 161.405, 380.450 166.304, 364.500 171.756 C 343.251 179.020, 335.413 182.118, 335.174 183.347 C 334.995 184.270, 334.484 184.799, 334.038 184.523 C 333.592 184.248, 332.647 184.720, 331.939 185.574 C 330.808 186.936, 331.008 187.036, 333.575 186.393 C 344.307 183.703, 397.212 165.068, 408.500 160.001 C 409.600 159.508, 413.851 157.801, 417.948 156.209 C 424.530 153.651, 428.161 151, 425.083 151 C 424.488 151, 424 151.450, 424 152 M 323.813 188.683 C 324.534 188.972, 325.397 188.936, 325.729 188.604 C 326.061 188.272, 325.471 188.036, 324.417 188.079 C 323.252 188.127, 323.015 188.364, 323.813 188.683 M 265 204.592 L 262.500 206.114 265.500 205.486 C 267.150 205.141, 268.928 204.440, 269.450 203.929 C 270.991 202.422, 267.780 202.901, 265 204.592 M 235.069 214.020 C 223.832 217.875, 214.419 221.247, 214.152 221.514 C 212.352 223.315, 221.022 221.085, 237.901 215.406 C 259.208 208.237, 261.997 207.076, 258 207.035 C 256.625 207.022, 246.306 210.164, 235.069 214.020 M 252 213.647 C 242.925 216.597, 234.600 219.448, 233.500 219.982 C 231.777 220.818, 221.074 223.994, 214.369 225.659 C 212.287 226.175, 209.170 230.503, 210.164 231.497 C 210.439 231.773, 212.652 232.401, 215.082 232.894 C 243.021 238.561, 260.343 242.338, 264.287 243.624 C 272.059 246.159, 271.943 246.428, 271.314 227.307 C 270.969 216.847, 270.333 210.081, 269.630 209.392 C 268.800 208.578, 264.113 209.709, 252 213.647 M 209.469 223.050 C 208.519 224.588, 209.820 225.580, 211.104 224.296 C 211.822 223.578, 211.839 223.019, 211.156 222.597 C 210.596 222.251, 209.837 222.455, 209.469 223.050 M 379.500 302.992 C 367.873 304.017, 358.522 309.169, 354.142 316.962 C 351.587 321.507, 352.135 321.828, 358.500 319.518 C 361.776 318.329, 366.886 318.180, 386.747 318.691 C 413.766 319.387, 413.724 319.396, 415.992 312.523 C 417.595 307.667, 415.952 304.358, 411.298 303.066 C 407.152 301.915, 392.123 301.880, 379.500 302.992 M 460.069 303.952 C 452.382 304.881, 450.575 306.606, 449.601 313.950 C 449.231 316.736, 447.821 320.649, 446.466 322.645 C 443.498 327.019, 441.732 333.087, 442.518 336.213 C 443.072 338.418, 443.479 338.500, 453.797 338.500 L 464.500 338.500 464.813 335.250 C 465.014 333.165, 465.665 332, 466.629 332 C 469.105 332, 472 333.963, 472 335.642 C 472 336.753, 472.514 336.998, 473.750 336.478 C 474.712 336.074, 476.512 335.523, 477.750 335.255 C 484.239 333.847, 475.372 328.451, 464.389 327.123 C 457.211 326.255, 453.394 326.857, 449.377 329.488 C 447.403 330.782, 447 330.807, 447 329.637 C 447 328.034, 452.361 325.258, 459 323.423 L 463.500 322.179 459.184 322.089 C 456.811 322.040, 453.998 322.466, 452.934 323.035 C 451.637 323.730, 451 323.736, 451 323.054 C 451 322.008, 451.365 321.903, 461.500 320.048 C 468.122 318.835, 480.721 317.051, 482.877 317.020 C 484.821 316.992, 483.812 307.383, 481.636 305.208 C 479.718 303.289, 470.162 302.733, 460.069 303.952 M 376.500 329.856 C 363.612 334.301, 361.449 336.080, 366.565 338.025 C 370.927 339.683, 374.704 339.239, 375.290 337 C 375.887 334.715, 379 334.253, 379 336.450 C 379 337.248, 378.231 338.331, 377.290 338.858 C 375.932 339.617, 376.498 339.952, 380.040 340.481 C 385.385 341.279, 389.440 339.927, 391.089 336.798 C 392.772 333.602, 393.957 333.033, 396.732 334.088 C 400.301 335.445, 407.251 335.253, 406.770 333.811 C 406.090 331.771, 401.517 328.907, 397.423 327.957 C 390.833 326.429, 384.869 326.970, 376.500 329.856 M 292.200 331.200 C 290.417 332.983, 290.740 334, 293.090 334 C 295.615 334, 301 338.850, 301 341.124 C 301 342.021, 301.648 343.293, 302.441 343.951 C 303.233 344.608, 304.071 346.126, 304.303 347.323 C 304.534 348.520, 304.518 347.486, 304.267 345.023 C 303.242 334.986, 296.331 327.069, 292.200 331.200 M 450 335.059 C 450 335.641, 450.450 335.840, 451 335.500 C 451.550 335.160, 452 334.684, 452 334.441 C 452 334.198, 451.550 334, 451 334 C 450.450 334, 450 334.477, 450 335.059 M 401.598 336.736 C 400.394 337.939, 401.051 339, 403 339 C 404.100 339, 405 338.598, 405 338.107 C 405 336.983, 402.399 335.934, 401.598 336.736 M 400.500 408.008 C 391.794 408.897, 390.142 409.588, 389.370 412.664 C 387.616 419.652, 394.025 440, 397.980 440 C 398.349 440, 401.179 438.087, 404.269 435.750 C 407.360 433.413, 412.613 429.589, 415.944 427.252 C 422.464 422.679, 423.156 421.502, 419.925 420.476 C 416.144 419.276, 418.741 418.798, 431.186 418.404 C 437.959 418.190, 445.188 417.781, 447.250 417.495 C 451.835 416.861, 452.319 418.676, 448 420.306 C 446.350 420.929, 445 421.777, 445 422.192 C 445 423.251, 455.253 436, 456.105 436 C 457.530 436, 459.183 429.259, 459.725 421.235 C 460.394 411.335, 459.406 409.682, 451.852 408.062 C 446.441 406.901, 411.698 406.865, 400.500 408.008 M 296.825 448.400 C 294.804 449.122, 291.429 451.075, 289.325 452.741 C 287.221 454.407, 277.175 460.018, 267 465.211 C 256.825 470.404, 244.598 477.094, 239.828 480.077 C 204.556 502.136, 186.607 514.155, 181.309 519.261 C 176.058 524.322, 171.500 532.777, 169.540 541.093 C 166.262 554.999, 168.753 559.871, 173.710 549.250 C 179.521 536.800, 186.589 528.653, 196.026 523.527 C 200.912 520.873, 202.635 520.512, 212.068 520.172 C 219.677 519.898, 224.436 520.252, 229.062 521.437 C 249.189 526.594, 274.694 543.141, 289.311 560.526 C 292.536 564.362, 297.948 571.901, 301.337 577.280 C 304.727 582.659, 308.175 588.114, 309 589.401 C 311.284 592.963, 318.208 604.579, 320.862 609.299 C 322.161 611.610, 324.804 617.100, 326.736 621.500 C 328.668 625.900, 330.358 629.628, 330.491 629.784 C 330.713 630.043, 417.645 630.364, 419.163 630.111 C 420.193 629.939, 406.419 600.421, 390.726 569.167 L 376.500 540.835 366.500 530.613 C 361 524.991, 349.750 514.359, 341.500 506.986 C 323.666 491.049, 295 463.020, 295 461.521 C 295 460.938, 297.020 457.770, 299.489 454.480 C 301.959 451.191, 303.984 448.163, 303.989 447.750 C 304.005 446.640, 300.987 446.914, 296.825 448.400 M 353.179 487.285 C 355.503 489.546, 368.377 499.577, 372 501.950 C 377.674 505.668, 366.697 495.605, 359.373 490.375 C 353.433 486.134, 350.479 484.660, 353.179 487.285 M 376 501 C 376 501.550, 376.450 502, 377 502 C 377.550 502, 378 501.550, 378 501 C 378 500.450, 377.550 500, 377 500 C 376.450 500, 376 500.450, 376 501 M 443.568 527.206 C 441.622 529.984, 441.537 532.115, 443.401 531.400 C 444.641 530.924, 449.039 531.583, 458.381 533.647 C 463.654 534.812, 460.769 531.843, 453.949 529.087 C 450.402 527.654, 446.968 526.140, 446.318 525.724 C 445.613 525.271, 444.505 525.868, 443.568 527.206 M 192.861 527.967 C 189.789 530.526, 191.732 530.556, 195 528 C 196.375 526.924, 196.987 526.034, 196.361 526.022 C 195.734 526.010, 194.159 526.885, 192.861 527.967 M 455.171 594.680 C 455.407 595.921, 456.576 596.602, 458.845 596.820 C 461.610 597.086, 462.115 596.832, 461.829 595.320 C 461.593 594.079, 460.424 593.398, 458.155 593.180 C 455.390 592.914, 454.885 593.168, 455.171 594.680 M 506.435 645.895 C 507.154 647.059, 547.882 647.177, 550.500 646.023 C 551.733 645.479, 543.557 645.114, 529.191 645.070 C 515.717 645.030, 506.115 645.377, 506.435 645.895" stroke="none" fill="black" fill-rule="evenodd"/>
	<path fill-opacity="0.296" d="M 441 141.013 C 432.231 143.905, 395.796 156.667, 392.500 158.002 C 390.850 158.670, 374.650 164.316, 356.500 170.548 C 338.350 176.781, 315.175 184.874, 305 188.534 C 294.825 192.193, 283.688 196.090, 280.250 197.194 C 275.133 198.838, 274.003 199.591, 274.015 201.351 C 274.025 202.716, 274.308 203.064, 274.791 202.305 C 275.209 201.647, 277.564 200.651, 280.025 200.090 C 282.486 199.530, 291.475 196.808, 300 194.042 C 315.746 188.933, 318.475 188.342, 319.401 189.839 C 320.798 192.100, 280.401 205.861, 275.855 204.672 C 272.966 203.917, 272.554 209.448, 273.858 231.500 C 274.509 242.500, 275.030 259.825, 275.017 270 C 275.004 280.175, 275.436 291.425, 275.977 295 C 277.815 307.155, 277.534 308.624, 272.389 313.769 C 258.011 328.147, 250.240 345.280, 243.449 377.572 C 239.036 398.557, 238.932 399.474, 238.125 424.186 C 237.571 441.162, 236.984 448.314, 236.053 449.436 C 235.015 450.687, 235.004 451.300, 236 452.500 C 236.941 453.633, 239.482 454, 246.399 454 C 263.721 454, 277.816 451.346, 292.220 445.372 C 295.366 444.067, 299.667 443, 301.779 443 C 309.517 443, 309.438 443.266, 310 415.332 C 310.368 397.075, 310.851 389.970, 311.827 388.500 C 312.823 386.998, 312.891 385.815, 312.101 383.750 L 311.049 380.999 307.775 382.996 C 301.045 387.099, 296.838 384.616, 291.078 373.144 C 284.192 359.430, 282.477 353.064, 282.552 341.500 C 282.613 332.140, 284.910 327.219, 290.445 324.593 C 295.243 322.316, 296.506 322.559, 301.005 326.623 C 310.312 335.032, 313.791 349.415, 314.453 382.219 C 315.153 416.915, 319.290 433.245, 332.334 452.810 C 341.120 465.987, 354.045 481.201, 362.500 488.319 C 366.350 491.560, 369.397 494.585, 369.271 495.042 C 369.145 495.499, 369.820 495.823, 370.771 495.762 C 371.722 495.701, 375.009 497.268, 378.076 499.245 C 385.758 504.196, 403.277 512.469, 410.394 514.506 C 414.933 515.805, 417.410 517.314, 421.166 521.071 L 426.044 525.949 428.285 521.227 C 429.827 517.981, 431.575 516.011, 433.882 514.922 C 437.407 513.257, 440.468 510.003, 442.008 506.283 C 442.521 505.044, 445.523 502.755, 448.814 501.094 C 452.052 499.459, 456.119 496.929, 457.851 495.472 C 459.832 493.805, 461.001 493.319, 461.004 494.161 C 461.006 495.272, 461.725 506, 463.471 531 C 463.605 532.925, 463.977 535.175, 464.296 536 C 464.616 536.825, 465.816 541.100, 466.964 545.500 C 468.112 549.900, 474.706 570.712, 481.617 591.750 L 494.183 630 517.591 630 C 535.658 630, 540.997 629.715, 540.988 628.750 C 540.981 628.063, 538.785 618.950, 536.107 608.500 C 533.429 598.050, 529.510 580.887, 527.399 570.359 C 523.693 551.877, 523.602 550.936, 524.756 543.017 C 528.408 517.960, 538.090 501.309, 546.889 504.954 C 548.365 505.565, 554.169 510.551, 559.786 516.032 C 565.404 521.514, 570 525.754, 570 525.454 C 570 523.980, 559.531 509.860, 554.955 505.161 C 548.336 498.365, 544.439 496.008, 539.809 496.004 C 537.779 496.002, 535.872 495.601, 535.570 495.114 C 535.269 494.626, 530.630 492.319, 525.261 489.986 C 519.893 487.653, 508.172 482.205, 499.215 477.881 C 490.259 473.556, 480.584 469.274, 477.715 468.364 C 472.513 466.715, 470.241 465.426, 471.072 464.595 C 471.313 464.353, 482.533 463.616, 496.005 462.956 C 509.477 462.296, 521.330 461.322, 522.345 460.792 C 524.527 459.652, 524.433 458.915, 519.560 439 C 516.043 424.623, 509.417 405.954, 502.886 392.014 C 498.801 383.295, 486.110 362.556, 485.335 363.332 C 485.098 363.569, 483.786 369.104, 482.420 375.631 C 481.054 382.159, 479.747 388.175, 479.516 389 C 479.285 389.825, 477.900 395.377, 476.437 401.338 C 474.974 407.299, 473.440 411.799, 473.029 411.338 C 472.618 410.877, 471.753 407.168, 471.106 403.095 C 470.459 399.022, 469.236 394.515, 468.388 393.080 C 466.552 389.971, 461.914 386.781, 456.764 385.085 C 454.709 384.408, 452.765 383.429, 452.444 382.909 C 452.120 382.386, 450.765 382.827, 449.401 383.899 C 445.366 387.073, 440.109 387.420, 433.402 384.955 C 430.156 383.762, 425.475 382.352, 423 381.823 C 420.525 381.293, 416.948 380.455, 415.051 379.962 C 410.846 378.868, 410.135 379.387, 412.405 381.895 C 413.354 382.943, 413.763 384.016, 413.315 384.279 C 412.867 384.542, 408.900 385.085, 404.500 385.486 C 394.035 386.441, 387.010 389.134, 382.828 393.793 C 379.583 397.407, 378.577 399.375, 373.898 411.250 C 372.652 414.412, 371.312 417, 370.920 417 C 370.529 417, 368.827 414.863, 367.138 412.250 C 365.449 409.637, 360.619 404.125, 356.404 400 C 347.348 391.137, 336.320 376.624, 331.215 366.852 C 327.574 359.882, 327.563 359.822, 326.731 342.682 C 325.861 324.738, 326.267 316.260, 328.172 312.645 C 328.794 311.465, 331.880 307.500, 335.030 303.833 L 340.758 297.166 340.247 288.192 C 339.656 277.824, 338.660 278.792, 351.843 276.924 C 363.958 275.208, 399.846 276.301, 417.471 278.922 C 435.659 281.627, 437.604 281.569, 451.643 277.908 C 458.164 276.207, 465.975 274.197, 469 273.441 C 479.415 270.839, 481.741 268, 473.457 268 C 468.887 268, 449.121 271.901, 440.748 274.456 C 438.095 275.265, 433.899 275.706, 431.248 275.454 C 428.637 275.205, 419.750 274.277, 411.500 273.392 C 392.490 271.352, 348.693 271.007, 337.933 272.812 C 329.048 274.303, 315.706 277.474, 313.820 278.544 C 311.792 279.695, 313.968 277.779, 318.250 274.644 C 320.313 273.134, 322 271.177, 322 270.295 C 322 267.630, 328.842 256.262, 331.765 254.072 C 333.269 252.944, 334.950 251.654, 335.500 251.205 C 336.050 250.756, 336.950 250.244, 337.500 250.067 C 340.975 248.950, 342.603 247.918, 346.362 244.450 C 346.988 243.872, 350.650 240.979, 354.500 238.022 C 358.350 235.064, 363.341 231.153, 365.592 229.331 C 370.600 225.277, 385.854 218, 389.346 218 C 392.672 218, 423.213 225.910, 424.450 227.092 C 426.357 228.914, 429.945 227.889, 440.369 222.544 C 453.185 215.973, 457.067 215.043, 461.566 217.466 C 464.751 219.181, 465.006 219.153, 475.156 216.008 C 480.845 214.244, 493.825 209.965, 504 206.497 C 514.175 203.029, 525.112 199.435, 528.304 198.509 C 531.671 197.533, 533.948 196.345, 533.726 195.679 C 533.394 194.681, 516.807 183.505, 462.416 147.630 C 455.219 142.884, 448.694 139.045, 447.916 139.100 C 447.137 139.155, 444.025 140.016, 441 141.013 M 438 145.952 C 437.175 146.411, 435.204 147.301, 433.621 147.931 C 432.037 148.560, 430.969 149.302, 431.246 149.579 C 431.814 150.147, 439.984 147.161, 441.450 145.850 C 442.676 144.753, 440.014 144.832, 438 145.952 M 424 152 C 424 152.550, 422.538 153.007, 420.750 153.015 C 418.284 153.027, 417.862 153.264, 419 154 C 420.166 154.753, 419.832 155.008, 417.500 155.142 C 415.850 155.237, 413.938 155.294, 413.250 155.269 C 412.563 155.243, 412 155.622, 412 156.111 C 412 156.600, 410.936 157, 409.636 157 C 408.335 157, 402.823 158.522, 397.386 160.383 C 347.027 177.615, 334.341 182.258, 333 183.951 C 332.175 184.992, 329.542 186.359, 327.149 186.988 C 324.756 187.617, 323.020 188.354, 323.292 188.625 C 323.850 189.183, 329.742 187.592, 348.500 181.819 C 368.174 175.764, 384.452 169.793, 415.957 157.077 C 424.265 153.724, 428.356 151, 425.083 151 C 424.488 151, 424 151.450, 424 152 M 265.500 204.624 L 262.500 206.086 265.500 205.472 C 267.150 205.135, 268.928 204.440, 269.450 203.929 C 270.827 202.583, 269.048 202.896, 265.500 204.624 M 241 212.078 C 233.025 214.854, 223.575 218.110, 220 219.313 C 215.904 220.691, 214.275 221.610, 215.596 221.799 C 216.749 221.964, 221.699 220.773, 226.596 219.152 C 239.020 215.039, 259.416 207.833, 259.917 207.378 C 261.740 205.723, 253.066 207.878, 241 212.078 M 267.896 208.437 C 267.629 208.704, 262.256 210.520, 255.956 212.473 C 249.655 214.427, 243.600 216.409, 242.500 216.879 C 233.735 220.621, 228.810 222.162, 214.440 225.659 C 212.057 226.239, 209.442 229.901, 210.668 230.942 C 211.338 231.511, 217.544 233.132, 228.500 235.599 C 229.050 235.723, 237.150 237.436, 246.500 239.407 C 255.850 241.377, 264.729 243.493, 266.232 244.109 C 271.731 246.361, 271.921 245.736, 271.314 227.307 C 270.955 216.415, 270.341 210.052, 269.570 209.226 C 268.916 208.526, 268.163 208.171, 267.896 208.437 M 209 224 C 209 224.550, 209.450 225, 210 225 C 210.550 225, 211 224.550, 211 224 C 211 223.450, 210.550 223, 210 223 C 209.450 223, 209 223.450, 209 224 M 379.500 302.992 C 370.515 303.784, 365.165 306.049, 358.890 311.718 C 354.292 315.872, 351.151 321.009, 353.224 320.985 C 353.926 320.977, 356.300 320.317, 358.500 319.518 C 361.776 318.329, 366.886 318.180, 386.747 318.691 C 413.766 319.387, 413.724 319.396, 415.992 312.523 C 417.595 307.667, 415.952 304.358, 411.298 303.066 C 407.152 301.915, 392.123 301.880, 379.500 302.992 M 460.646 303.868 C 453.555 304.683, 450.618 307.474, 449.684 314.287 C 449.343 316.779, 447.925 320.496, 446.533 322.546 C 443.505 327.008, 441.726 333.062, 442.518 336.213 C 443.072 338.418, 443.478 338.500, 453.796 338.500 L 464.500 338.500 464.818 335.190 C 465.097 332.283, 465.450 331.918, 467.717 332.190 C 469.847 332.446, 471.143 333.662, 472.653 336.819 C 472.737 336.995, 473.637 336.690, 474.653 336.142 C 475.669 335.594, 477.349 334.879, 478.386 334.552 C 480.190 333.984, 480.195 333.873, 478.513 332.014 C 476.257 329.522, 467.681 327.028, 460.837 326.875 C 456.252 326.773, 452.538 327.802, 446.749 330.781 C 446.336 330.993, 446.259 330.489, 446.577 329.661 C 447.256 327.890, 452.665 325.174, 459 323.423 L 463.500 322.179 459.184 322.089 C 456.811 322.040, 453.998 322.466, 452.934 323.035 C 451.637 323.730, 451 323.736, 451 323.054 C 451 322.008, 451.365 321.903, 461.500 320.048 C 468.122 318.835, 480.721 317.051, 482.877 317.020 C 484.821 316.992, 483.812 307.383, 481.636 305.208 C 479.776 303.348, 470.391 302.749, 460.646 303.868 M 379.500 328.826 C 371.325 331.284, 364 334.659, 364 335.969 C 364 337.309, 368.273 339, 371.659 339 C 373.346 339, 374.361 338.335, 374.710 337 C 375 335.893, 376.074 335, 377.117 335 C 379.587 335, 379.717 338.963, 377.250 339.090 C 376.288 339.140, 377.046 339.624, 378.935 340.167 C 383.934 341.602, 388.698 340.406, 390.734 337.203 C 393.100 333.484, 393.963 333.035, 396.732 334.088 C 398.051 334.590, 400.938 335, 403.148 335 C 408.237 335, 407.879 333.349, 402.091 330.128 C 396.368 326.943, 387.470 326.430, 379.500 328.826 M 292.200 331.200 C 290.417 332.983, 290.740 334, 293.090 334 C 295.615 334, 301 338.850, 301 341.124 C 301 342.021, 301.675 343.315, 302.500 344 C 304.652 345.786, 304.470 342.632, 302.124 337.468 C 299.030 330.655, 295.178 328.222, 292.200 331.200 M 449.500 335 C 449.840 335.550, 450.541 336, 451.059 336 C 451.577 336, 452 335.550, 452 335 C 452 334.450, 451.298 334, 450.441 334 C 449.584 334, 449.160 334.450, 449.500 335 M 401 338 C 401 338.550, 401.648 339, 402.441 339 C 403.234 339, 404.160 338.550, 404.500 338 C 404.840 337.450, 404.191 337, 403.059 337 C 401.927 337, 401 337.450, 401 338 M 304.158 348 C 304.158 349.375, 304.385 349.938, 304.662 349.250 C 304.940 348.563, 304.940 347.438, 304.662 346.750 C 304.385 346.063, 304.158 346.625, 304.158 348 M 403 407.640 C 391.295 408.597, 389 409.927, 389 415.758 C 389 424.092, 394.541 440, 397.444 440 C 398.215 440, 400.119 438.959, 401.673 437.687 C 403.228 436.415, 408.142 432.834, 412.593 429.729 C 423.036 422.444, 424.018 421.294, 420.542 420.421 C 419.093 420.057, 418.107 419.560, 418.351 419.315 C 418.596 419.071, 424.579 418.668, 431.648 418.421 C 438.717 418.173, 446.010 417.723, 447.855 417.420 C 452.084 416.727, 451.768 418.925, 447.438 420.324 C 445.822 420.847, 444.326 421.424, 444.113 421.607 C 443.334 422.278, 455.208 436.097, 456.262 435.746 C 457.906 435.198, 460.992 423.195, 460.996 417.332 C 461 412.439, 460.800 412.039, 457.250 409.832 C 453.622 407.576, 452.751 407.496, 430.500 407.386 C 417.850 407.323, 405.475 407.437, 403 407.640 M 297.806 447.985 C 296.324 448.431, 292.421 450.868, 289.132 453.399 C 285.843 455.929, 282.822 458, 282.419 458 C 280.555 458, 248.647 474.734, 239.142 480.697 C 223.273 490.652, 215.066 495.899, 209.500 499.648 C 201.725 504.884, 200.949 505.391, 193.504 510.087 C 176.743 520.660, 170.530 530.446, 168.321 549.750 C 167.816 554.160, 167.978 555, 169.332 555 C 170.372 555, 172.419 551.908, 175.111 546.268 C 180.231 535.539, 188.879 526.336, 197.683 522.248 C 202.986 519.785, 204.517 519.553, 215 519.624 C 224.985 519.692, 227.488 520.068, 234 522.477 C 260.649 532.335, 283.647 550.188, 297.796 572 C 301.899 578.325, 307.473 586.812, 310.182 590.859 C 316.335 600.052, 322.934 612.227, 327.059 622 C 328.800 626.125, 330.332 629.620, 330.462 629.766 C 330.685 630.017, 417.743 630.358, 419.166 630.114 C 420.113 629.952, 406.429 600.752, 390.935 569.872 C 381.191 550.451, 376.296 541.835, 372.363 537.183 C 369.425 533.709, 357.905 522.516, 346.761 512.310 C 323.017 490.563, 295 463.007, 295 461.399 C 295 460.781, 296.394 458.526, 298.097 456.388 C 299.801 454.249, 301.838 451.262, 302.623 449.750 C 303.925 447.243, 303.894 447.008, 302.276 447.086 C 301.299 447.133, 299.288 447.538, 297.806 447.985 M 353.179 487.287 C 355.349 489.400, 368.235 499.417, 372 501.918 C 377.771 505.752, 366.579 495.521, 359.373 490.375 C 353.430 486.132, 350.483 484.662, 353.179 487.287 M 435.583 507.643 C 434.665 510.037, 435.381 510.221, 436.796 507.955 C 437.468 506.880, 437.611 506, 437.115 506 C 436.620 506, 435.930 506.739, 435.583 507.643 M 193 528 C 191.625 529.076, 190.950 529.956, 191.500 529.956 C 192.050 529.956, 193.625 529.076, 195 528 C 196.375 526.924, 197.050 526.044, 196.500 526.044 C 195.950 526.044, 194.375 526.924, 193 528 M 443.250 527.948 C 441.601 530.619, 441.665 532.066, 443.401 531.400 C 444.636 530.926, 449.179 531.605, 458.250 533.622 C 463.034 534.685, 461.215 532.604, 454.852 529.734 C 446.094 525.783, 444.717 525.571, 443.250 527.948 M 455.535 593.943 C 454.441 595.713, 455.955 597, 459.132 597 C 461.463 597, 462.071 596.603, 461.815 595.250 C 461.441 593.277, 456.573 592.264, 455.535 593.943 M 506.434 645.893 C 507.153 647.056, 546.886 647.176, 549.500 646.023 C 550.735 645.478, 542.772 645.114, 528.691 645.070 C 515.547 645.030, 506.116 645.378, 506.434 645.893" stroke="none" fill="black" fill-rule="evenodd"/>
	<path fill-opacity="0.713" d="M 430 144.932 C 407.846 152.484, 398.270 155.849, 380.500 162.328 C 372.250 165.335, 356.050 170.958, 344.500 174.822 C 332.950 178.686, 316.195 184.565, 307.268 187.886 C 298.340 191.207, 287.203 195.119, 282.518 196.580 C 275.307 198.828, 274.002 199.563, 274.015 201.368 C 274.025 202.687, 274.315 203.054, 274.775 202.329 C 275.185 201.685, 276.866 200.849, 278.510 200.470 C 282.605 199.526, 293.447 196.177, 299.500 193.987 C 311.649 189.589, 318.415 187.745, 318.746 188.739 C 319.203 190.110, 331.727 185.736, 333.308 183.653 C 335.015 181.403, 404.408 157.073, 409.250 157.026 C 410.762 157.012, 412 156.600, 412 156.111 C 412 155.622, 412.563 155.243, 413.250 155.269 C 413.938 155.294, 415.850 155.237, 417.500 155.142 C 419.832 155.008, 420.166 154.753, 419 154 C 417.862 153.264, 418.284 153.027, 420.750 153.015 C 422.538 153.007, 424 152.550, 424 152 C 424 151.450, 424.675 151, 425.500 151 C 428.232 151, 427.057 152.674, 423.250 154.205 C 391.468 166.989, 382.756 170.390, 373 173.821 C 366.675 176.046, 358.350 178.836, 354.500 180.022 C 337.283 185.326, 319.374 191.325, 305.820 196.330 C 289.807 202.242, 277.833 205.534, 275.538 204.653 C 273.021 203.687, 272.606 210.324, 273.858 231.500 C 274.509 242.500, 275.030 259.825, 275.017 270 C 275.004 280.175, 275.436 291.425, 275.977 295 C 277.948 308.036, 277.673 309.250, 271.409 315.174 C 260.908 325.106, 252.373 341.662, 246.989 362.542 C 240.789 386.589, 238.068 408.398, 238.023 434.421 C 238.004 445.265, 237.721 447.651, 236.263 449.262 C 234.611 451.088, 234.620 451.249, 236.454 452.590 C 241.737 456.453, 278.804 451.535, 293 445.088 C 295.475 443.964, 299.300 443.027, 301.500 443.007 C 303.700 442.986, 306.096 442.591, 306.826 442.129 C 308.873 440.831, 309.880 429.261, 309.681 409.301 C 309.547 395.870, 309.828 390.773, 310.750 389.851 C 312.169 388.431, 312.467 382, 311.114 382 C 310.627 382, 308.940 382.672, 307.364 383.494 C 303.187 385.672, 299.269 385.360, 296.541 382.632 C 295.239 381.329, 292.101 376.006, 289.570 370.801 C 278.295 347.624, 279.900 326.377, 293.147 323.468 C 296.948 322.633, 299.948 324.638, 305.181 331.515 C 311 339.161, 312.823 346.713, 313.867 367.500 C 314.364 377.400, 314.760 388.875, 314.747 393 C 314.719 401.990, 317.431 419.959, 320.059 428.183 C 323.128 437.791, 327.468 446, 335.340 457.087 C 344.983 470.669, 356.357 483.577, 363.910 489.510 C 367.236 492.123, 369.668 494.729, 369.314 495.300 C 368.930 495.922, 369.290 496.103, 370.211 495.749 C 371.102 495.407, 375.271 497.276, 380.117 500.189 C 392.176 507.438, 400.476 511.402, 408.860 513.917 C 414.917 515.733, 417.091 516.995, 421.141 521.046 L 426.062 525.967 427.031 523.418 C 427.564 522.017, 428.015 520.562, 428.033 520.185 C 428.112 518.564, 431.762 515.276, 434.148 514.678 C 436.798 514.012, 441.198 509.094, 442.357 505.500 C 442.734 504.332, 445.467 502.355, 448.927 500.748 C 452.186 499.234, 456.235 496.832, 457.926 495.409 C 459.876 493.768, 461.001 493.312, 461.004 494.161 C 461.006 495.272, 461.725 506, 463.471 531 C 463.605 532.925, 463.985 535.175, 464.315 536 C 464.645 536.825, 465.645 540.425, 466.537 544 C 467.428 547.575, 470.099 556.350, 472.472 563.500 C 474.844 570.650, 480.710 588.538, 485.506 603.250 L 494.226 630 517.613 630 C 530.632 630, 541 629.605, 541 629.109 C 541 628.619, 538.927 620.181, 536.393 610.359 C 533.859 600.537, 531.420 590.475, 530.973 588 C 530.526 585.525, 529.637 581.250, 528.997 578.500 C 527.104 570.364, 525.744 564.112, 523.891 555.035 C 523.239 551.839, 523.437 547.862, 524.588 541.035 C 528.540 517.606, 538.506 501.482, 546.889 504.954 C 548.365 505.565, 554.169 510.551, 559.786 516.032 C 565.404 521.514, 570 525.760, 570 525.468 C 570 524.230, 561.152 511.889, 557.159 507.557 C 550.056 499.851, 544.380 496, 540.123 496 C 538.076 496, 535.972 495.588, 535.450 495.084 C 534.927 494.581, 527.525 491.031, 519 487.196 C 510.475 483.360, 499.225 478.167, 494 475.656 C 488.775 473.144, 481.593 469.998, 478.040 468.664 C 474.487 467.330, 471.434 465.801, 471.255 465.264 C 470.930 464.289, 478.634 463.659, 506.763 462.360 C 514.608 461.997, 521.671 461.206, 522.458 460.600 C 523.687 459.655, 523.542 457.812, 521.426 447.500 C 517.147 426.649, 510.841 408.618, 500.874 388.739 C 495.534 378.089, 486.062 362.605, 485.333 363.334 C 485.102 363.565, 483.576 370.221, 481.941 378.127 C 477.713 398.572, 474.446 411.351, 473.353 411.716 C 472.835 411.888, 471.883 408.404, 471.237 403.972 C 469.503 392.075, 466.876 388.783, 455.808 384.636 C 451.613 383.065, 450.870 383.036, 448.808 384.365 C 444.441 387.178, 439.954 387.254, 432 384.648 C 427.875 383.296, 422.250 381.865, 419.500 381.468 C 416.750 381.070, 413.712 380.336, 412.750 379.837 C 410.581 378.712, 410.402 380.259, 412.500 382 C 415.153 384.202, 414.159 384.700, 405.750 385.381 C 386.855 386.911, 382.199 390.698, 373.942 411.250 C 372.672 414.412, 371.312 417, 370.920 417 C 370.529 417, 368.826 414.863, 367.135 412.250 C 365.445 409.637, 360.416 403.900, 355.960 399.500 C 346.169 389.833, 334.278 374.381, 330.464 366.369 C 327.910 361.006, 327.592 359.036, 326.769 343.500 C 325.336 316.431, 326.001 313.333, 335.451 303.053 L 340.764 297.274 340.250 288.246 C 339.655 277.816, 338.656 278.792, 351.843 276.924 C 363.958 275.208, 399.846 276.301, 417.471 278.922 C 435.660 281.627, 437.604 281.569, 451.643 277.906 C 458.164 276.205, 466.141 274.159, 469.369 273.359 C 474.622 272.057, 478 270.184, 478 268.571 C 478 266.565, 456.190 270.020, 440.607 274.493 C 435.330 276.008, 429.232 275.877, 415.681 273.955 C 403.577 272.238, 368.119 270.801, 355 271.496 C 339.175 272.334, 318.546 275.883, 313.738 278.595 C 311.793 279.692, 314.027 277.736, 318.250 274.644 C 320.313 273.134, 322 271.197, 322 270.339 C 322 267.226, 328.494 256.697, 332.303 253.637 C 334.449 251.911, 336.497 250.461, 336.853 250.414 C 339.073 250.117, 342.734 247.817, 346.362 244.440 C 353.657 237.648, 371.744 225.047, 379.412 221.415 C 387.943 217.373, 394 216.091, 394 218.325 C 394 218.814, 394.620 218.976, 395.378 218.685 C 396.136 218.394, 397.149 218.521, 397.628 218.966 C 398.108 219.411, 404.125 221.219, 411 222.985 C 417.875 224.750, 424.044 226.641, 424.709 227.186 C 426.562 228.705, 431.758 227.197, 439.772 222.813 C 443.772 220.625, 449.397 218.007, 452.272 216.994 C 457.404 215.187, 457.565 215.190, 461.032 217.138 L 464.563 219.123 479.032 214.498 C 505.927 205.902, 532.495 196.877, 533.332 196.055 C 534.165 195.235, 529.043 191.520, 509.165 178.531 C 503.299 174.698, 487.378 164.236, 473.785 155.281 C 460.191 146.326, 448.491 139.069, 447.785 139.153 C 447.078 139.238, 439.075 141.838, 430 144.932 M 436 146.712 C 432.975 148.113, 431.032 149.453, 431.682 149.690 C 432.882 150.128, 444 145.455, 444 144.514 C 444 143.496, 441.401 144.210, 436 146.712 M 427 149.393 C 427 149.609, 427.698 150.054, 428.552 150.382 C 429.442 150.723, 429.843 150.555, 429.493 149.989 C 428.906 149.038, 427 148.583, 427 149.393 M 267 204 C 265.707 204.835, 265.734 204.971, 267.191 204.985 C 268.121 204.993, 269.160 204.550, 269.500 204 C 270.282 202.734, 268.958 202.734, 267 204 M 251 208.534 C 248.525 209.304, 245.600 210.404, 244.500 210.978 C 243.400 211.553, 235.975 214.233, 228 216.935 C 220.025 219.636, 214.110 221.881, 214.856 221.923 C 216.766 222.031, 227.910 219.091, 231.500 217.531 C 236.178 215.499, 245.097 212.265, 249.500 211.005 C 251.700 210.376, 254.400 209.475, 255.500 209.003 C 256.600 208.532, 258.175 207.924, 259 207.652 C 259.825 207.380, 259.375 207.152, 258 207.146 C 256.625 207.139, 253.475 207.764, 251 208.534 M 257.500 212.175 C 252.550 213.820, 246.925 215.736, 245 216.431 C 236.656 219.445, 230.935 221.265, 222.500 223.591 C 216.375 225.279, 212.958 226.779, 211.804 228.286 C 210.871 229.504, 210.421 230.772, 210.804 231.104 C 211.541 231.744, 228.198 235.426, 246.500 238.995 C 252.550 240.175, 260.113 242.047, 263.307 243.155 C 266.500 244.264, 269.746 244.928, 270.519 244.631 C 271.674 244.188, 271.831 241.365, 271.399 228.796 C 270.774 210.584, 270.514 208.971, 268.231 209.091 C 267.279 209.141, 262.450 210.529, 257.500 212.175 M 209.500 224 C 209.840 224.550, 210.316 225, 210.559 225 C 210.802 225, 211 224.550, 211 224 C 211 223.450, 210.523 223, 209.941 223 C 209.359 223, 209.160 223.450, 209.500 224 M 384 302.603 C 382.075 302.821, 378.172 303.252, 375.327 303.562 C 367.916 304.368, 356.722 311.862, 353.385 318.250 C 351.725 321.427, 351.988 321.497, 357.881 319.445 C 361.575 318.159, 366.084 318.028, 386.593 318.614 C 413.252 319.374, 413.097 319.402, 415.564 313.500 C 417.188 309.614, 416.319 305.247, 413.628 303.776 C 411.529 302.629, 390.973 301.815, 384 302.603 M 460.851 303.901 C 453.750 304.663, 451.296 306.774, 450.426 312.865 C 450.062 315.414, 448.461 319.498, 446.869 321.941 C 443.526 327.070, 441.623 333.236, 442.516 336.049 C 443.178 338.135, 443.222 338.143, 456.500 338.366 L 464.500 338.500 465 335.079 C 465.639 330.705, 467.290 330.199, 470.489 333.398 C 472.490 335.399, 473.672 335.816, 476.017 335.347 C 479.555 334.639, 479.889 332.571, 476.750 330.802 C 469.291 326.598, 456.897 325.739, 450.530 328.985 C 448.388 330.077, 446.406 330.739, 446.124 330.457 C 444.831 329.164, 450.141 325.922, 456.500 324.123 C 462.621 322.391, 463.037 322.133, 459.815 322.071 C 457.788 322.032, 454.976 322.439, 453.565 322.975 C 451.947 323.591, 451 323.598, 451 322.994 C 451 322.468, 452.012 321.843, 453.250 321.605 C 454.488 321.366, 457.975 320.696, 461 320.115 C 464.025 319.533, 470.438 318.527, 475.250 317.877 L 484 316.697 483.986 313.598 C 483.943 303.673, 479.665 301.880, 460.851 303.901 M 382 328.082 C 380.075 328.644, 377.150 329.688, 375.500 330.402 C 373.850 331.116, 371.052 332.266, 369.283 332.958 C 364.268 334.918, 363.233 336.758, 366.456 337.983 C 370.820 339.642, 374.122 339.249, 374.710 337 C 375.242 334.967, 378.415 334.244, 379.450 335.919 C 379.763 336.425, 379.342 337.515, 378.516 338.341 C 377.179 339.678, 377.343 339.917, 380.007 340.501 C 385.031 341.605, 388.674 340.217, 390.971 336.325 C 392.663 333.457, 393.483 332.903, 395.280 333.417 C 396.501 333.766, 399.698 334.335, 402.385 334.681 C 408.514 335.471, 408.396 333.637, 402.091 330.128 C 397.230 327.422, 387.614 326.443, 382 328.082 M 293 331.247 C 290.723 332.210, 290.676 332.346, 292.468 332.768 C 296.012 333.601, 301 338.120, 301 340.496 C 301 341.739, 301.675 343.315, 302.500 344 C 304.812 345.919, 304.401 342.393, 301.695 337.104 C 298.820 331.484, 296.360 329.827, 293 331.247 M 449.667 333.667 C 448.516 334.817, 448.938 336, 450.500 336 C 451.325 336, 452 335.325, 452 334.500 C 452 332.938, 450.817 332.516, 449.667 333.667 M 401.500 338 C 401.160 338.550, 401.584 339, 402.441 339 C 403.298 339, 404 338.550, 404 338 C 404 337.450, 403.577 337, 403.059 337 C 402.541 337, 401.840 337.450, 401.500 338 M 304.158 348 C 304.158 349.375, 304.385 349.938, 304.662 349.250 C 304.940 348.563, 304.940 347.438, 304.662 346.750 C 304.385 346.063, 304.158 346.625, 304.158 348 M 408 406.972 C 393.386 407.918, 390.325 408.858, 389.363 412.690 C 387.794 418.941, 393.841 440.018, 397.195 439.989 C 398.915 439.974, 422.235 423.794, 422.746 422.261 C 422.964 421.608, 421.964 420.778, 420.524 420.417 C 419.085 420.055, 418.098 419.569, 418.332 419.335 C 418.565 419.101, 424.549 418.703, 431.628 418.449 C 438.708 418.195, 445.962 417.745, 447.750 417.449 C 449.538 417.152, 451 417.325, 451 417.833 C 451 418.342, 449.538 419.340, 447.750 420.051 C 445.962 420.763, 444.326 421.479, 444.113 421.643 C 443.312 422.259, 455.222 436.093, 456.256 435.748 C 458.086 435.138, 460.122 427.880, 460.710 419.871 L 461.269 412.242 456.700 409.564 C 452.361 407.021, 451.334 406.868, 436.315 406.525 C 427.617 406.325, 414.875 406.527, 408 406.972 M 297.806 447.985 C 296.324 448.431, 292.421 450.868, 289.132 453.399 C 285.843 455.929, 282.827 458, 282.429 458 C 280.943 458, 255.066 471.499, 243.500 478.308 C 222.867 490.454, 185.717 515.529, 180.803 520.627 C 174.046 527.636, 169.948 537.002, 169.262 547.001 C 168.932 551.823, 169.095 555, 169.674 555 C 170.202 555, 172.554 551.159, 174.902 546.464 C 180.503 535.267, 188.089 527.066, 196.822 522.768 C 203.130 519.663, 204.012 519.502, 214.481 519.547 C 229.401 519.611, 236.730 521.957, 256.574 533.026 C 274.487 543.018, 291.834 560.374, 302.523 579 C 304.575 582.575, 306.794 585.950, 307.456 586.500 C 309.521 588.217, 319.984 606.674, 325.652 618.599 C 328.633 624.869, 331.393 630, 331.786 630.001 C 332.179 630.002, 351.962 630.109, 375.749 630.239 C 403.711 630.393, 419.016 630.128, 419.051 629.488 C 419.131 628.001, 407.230 603.032, 391.192 571.041 C 381.152 551.013, 375.435 540.784, 372.024 536.748 C 369.351 533.585, 358.014 522.617, 346.832 512.375 C 323.102 490.641, 295 463.010, 295 461.412 C 295 460.800, 296.269 458.545, 297.819 456.400 C 299.369 454.255, 301.446 451.262, 302.434 449.750 C 304.171 447.091, 304.169 447.003, 302.365 447.086 C 301.339 447.133, 299.288 447.538, 297.806 447.985 M 357.158 490.284 C 367.881 498.883, 371.590 501.521, 369.500 499.059 C 367.410 496.599, 353.582 486, 352.462 486 C 352.107 486, 354.220 487.928, 357.158 490.284 M 435.583 507.643 C 434.665 510.037, 435.381 510.221, 436.796 507.955 C 437.468 506.880, 437.611 506, 437.115 506 C 436.620 506, 435.930 506.739, 435.583 507.643 M 443.241 527.986 C 441.600 530.614, 441.668 532.065, 443.401 531.400 C 444.636 530.926, 449.179 531.605, 458.250 533.622 C 461.259 534.291, 462.130 532.594, 459.250 531.675 C 458.288 531.368, 454.800 529.968, 451.500 528.563 C 444.299 525.498, 444.774 525.531, 443.241 527.986 M 456 594.023 C 454.667 594.891, 454.667 595.109, 456 595.985 C 457.984 597.287, 460.720 597.262, 461.541 595.933 C 462.325 594.665, 462.119 594.435, 459.500 593.647 C 458.400 593.316, 456.825 593.485, 456 594.023 M 511.403 645.887 C 514.547 647.120, 543.710 647.278, 544.459 646.066 C 544.917 645.326, 539.676 645.021, 527.309 645.070 C 517.514 645.109, 510.356 645.476, 511.403 645.887" stroke="none" fill="black" fill-rule="evenodd"/>
	<path fill-opacity="1.000" d="M 426 146.437 C 414.175 150.442, 401.350 154.928, 397.500 156.406 C 389.189 159.596, 358.768 170.060, 340.500 176.011 C 333.350 178.340, 325.925 181.032, 324 181.992 C 322.075 182.953, 310.038 187.280, 297.250 191.609 C 277.202 198.395, 274.002 199.756, 274.015 201.489 C 274.025 202.755, 274.307 203.066, 274.775 202.329 C 275.185 201.685, 276.866 200.861, 278.510 200.497 C 280.155 200.133, 283.750 198.997, 286.500 197.973 C 298.157 193.632, 318.449 187.847, 318.759 188.777 C 319.228 190.185, 331.823 185.624, 333.393 183.478 C 334.095 182.517, 340.256 179.826, 347.085 177.498 C 362.663 172.185, 379.877 166.137, 382.500 165.053 C 388.340 162.642, 407.202 157, 409.424 157 C 410.841 157, 412 156.600, 412 156.111 C 412 155.622, 412.563 155.243, 413.250 155.269 C 413.938 155.294, 415.850 155.237, 417.500 155.142 C 419.832 155.008, 420.166 154.753, 419 154 C 417.862 153.264, 418.284 153.027, 420.750 153.015 C 422.538 153.007, 424 152.550, 424 152 C 424 151.450, 424.675 151, 425.500 151 C 429.185 151, 426.133 152.907, 414.750 157.715 C 389.698 168.298, 377.129 172.786, 326 189.403 C 320.225 191.280, 310.325 194.712, 304 197.030 C 288.554 202.691, 275.695 206.072, 274.829 204.700 C 273.171 202.075, 272.771 213.114, 273.858 231.500 C 274.509 242.500, 275.033 259.825, 275.023 270 C 275.013 280.175, 275.458 291.200, 276.012 294.500 C 278.577 309.793, 279.085 307.677, 270.843 316.032 C 266.791 320.139, 262.806 324.844, 261.988 326.486 C 261.170 328.128, 258.799 332.603, 256.719 336.430 C 245.800 356.528, 238 397.590, 238 434.977 C 238 444.749, 237.652 448.051, 236.442 449.780 C 233.750 453.623, 237.967 454.388, 255 453.147 C 270.019 452.052, 280.901 449.777, 291.613 445.492 C 295.038 444.121, 299.564 442.993, 301.671 442.985 C 306.049 442.967, 307.317 442.316, 308.453 439.500 C 308.896 438.400, 309.356 427.017, 309.474 414.205 C 309.622 398.184, 310.050 390.550, 310.845 389.755 C 312.113 388.487, 312.454 381.979, 311.250 382.035 C 310.837 382.055, 309.375 382.714, 308 383.500 C 304.489 385.507, 299.697 385.336, 296.856 383.102 C 293.479 380.445, 285.291 362.891, 283.516 354.500 C 279.887 337.351, 283.490 325.124, 292.680 323.400 C 299.312 322.156, 307.209 330.461, 310.968 342.632 C 312.856 348.744, 314.774 374.263, 314.754 393 C 314.744 402.885, 317.613 420.784, 320.584 429.370 C 326.076 445.238, 340.855 466.982, 357.035 483 C 364.971 490.856, 370.549 495.446, 372.647 495.847 C 373.646 496.038, 375.597 497, 376.982 497.984 C 383.009 502.268, 402.007 511.884, 407.500 513.431 C 413.665 515.167, 423.408 521.015, 424.387 523.565 C 425.136 525.517, 427 525.384, 427 523.380 C 427 521.486, 432.121 513.090, 433.309 513.037 C 433.754 513.016, 433.840 513.450, 433.500 514 C 433.160 514.550, 433.336 515, 433.890 515 C 435.472 515, 440.981 508.749, 441.643 506.204 C 442.046 504.652, 444.228 502.916, 448.370 500.848 C 451.741 499.165, 455.733 496.631, 457.240 495.217 C 458.746 493.803, 460.187 492.853, 460.441 493.107 C 460.824 493.491, 462.849 518.439, 463.516 531 C 463.618 532.925, 463.972 535.175, 464.302 536 C 464.631 536.825, 465.410 539.525, 466.032 542 C 466.654 544.475, 468.229 549.650, 469.531 553.500 C 470.834 557.350, 476.254 574.185, 481.577 590.910 C 486.899 607.636, 492.118 623.273, 493.174 625.660 L 495.094 630 518.047 630 C 530.671 630, 541 629.706, 541 629.348 C 541 627.886, 534.764 603.080, 532.994 597.500 C 531.947 594.200, 529.668 584.300, 527.930 575.500 C 526.192 566.700, 524.373 557.523, 523.888 555.107 C 522.927 550.315, 523.842 542.768, 527.028 529.225 C 529.577 518.390, 530.513 516.582, 538.354 507.357 C 542.871 502.043, 545.760 502.651, 554.347 510.724 C 570.695 526.093, 570.759 526.128, 563.857 515.946 C 559.486 509.498, 549.851 500.009, 545.271 497.640 C 543.526 496.738, 540.941 496, 539.525 496 C 538.109 496, 533.761 494.394, 529.862 492.431 C 525.964 490.467, 518.888 487.138, 514.137 485.031 C 509.387 482.924, 501.450 479.286, 496.500 476.947 C 491.550 474.608, 483.916 471.236, 479.536 469.455 C 475.156 467.674, 471.422 465.766, 471.238 465.214 C 471.032 464.595, 476.195 463.958, 484.702 463.552 C 503.600 462.651, 522.360 461.009, 523.174 460.183 C 524.087 459.258, 518.827 434.504, 515.515 424.140 C 510.021 406.947, 494.742 375.264, 486.987 364.983 L 485.151 362.549 484.629 365.025 C 484.341 366.386, 483.169 372.225, 482.024 378 C 478.515 395.699, 474.548 411.317, 473.469 411.677 C 472.889 411.870, 471.883 408.453, 471.150 403.791 C 469.390 392.606, 467.984 390.561, 459.114 386.288 C 452.124 382.920, 451.588 382.812, 449.114 384.273 C 444.148 387.206, 439.999 387.284, 431.500 384.607 C 427.100 383.222, 421.475 381.781, 419 381.407 C 416.525 381.032, 413.712 380.322, 412.750 379.828 C 410.583 378.716, 410.405 380.262, 412.500 382 C 415.166 384.213, 414.145 384.730, 405.750 385.420 C 388.417 386.844, 381.637 391.536, 376.604 405.592 C 375.011 410.040, 373.059 414.539, 372.267 415.590 C 370.869 417.443, 370.777 417.425, 369.165 415 C 368.252 413.625, 363.903 408.673, 359.502 403.996 C 348.092 391.869, 337.964 379.459, 333.799 372.500 C 327.637 362.203, 327.085 359.359, 326.778 336.296 C 326.464 312.825, 326.493 312.703, 334.467 304.093 C 340.587 297.484, 340.869 296.617, 339.654 288.133 C 338.709 281.538, 338.781 280.633, 340.344 279.490 C 346.048 275.319, 390.933 274.992, 417.471 278.928 C 435.333 281.577, 437.701 281.538, 449.622 278.398 C 455.055 276.967, 462.684 274.995, 466.576 274.015 C 473.825 272.190, 478 270.217, 478 268.615 C 478 266.951, 463.678 268.845, 449.382 272.398 C 434.474 276.104, 431.728 276.231, 415.681 273.955 C 403.577 272.238, 368.119 270.801, 355 271.496 C 340.477 272.265, 327.890 274.240, 319.746 277.030 C 313.162 279.284, 313 279.310, 313 278.114 C 313 277.627, 314.600 276.469, 316.555 275.541 C 318.520 274.609, 320.594 272.657, 321.193 271.177 C 324.390 263.277, 326.973 259.096, 331.328 254.772 C 333.983 252.135, 336.502 250.192, 336.926 250.454 C 337.349 250.716, 340.581 248.550, 344.107 245.641 C 362.372 230.576, 380.692 218.899, 388.303 217.471 C 390.665 217.028, 395.303 217.980, 404.554 220.808 C 411.674 222.984, 419.075 225.095, 421 225.498 C 422.925 225.901, 425.045 226.670, 425.711 227.206 C 427.176 228.385, 433.249 226.600, 437.200 223.829 C 440.954 221.196, 450.568 216.887, 454.836 215.924 C 457.460 215.332, 459.115 215.546, 461.129 216.735 C 463.472 218.119, 464.624 218.179, 469.212 217.152 C 477.602 215.274, 532.119 197.215, 533.467 195.866 C 534.078 195.255, 525.559 189.461, 484.500 162.565 C 471.300 153.919, 457.934 145.079, 454.799 142.922 C 451.663 140.765, 448.738 139.035, 448.299 139.078 C 447.859 139.121, 437.825 142.432, 426 146.437 M 437.264 145.890 C 432.640 147.727, 429.653 150, 431.864 150 C 433.428 150, 444 145.220, 444 144.514 C 444 143.655, 441.716 144.122, 437.264 145.890 M 427 149.393 C 427 149.609, 427.675 150.045, 428.500 150.362 C 429.325 150.678, 430 150.501, 430 149.969 C 430 149.436, 429.325 149, 428.500 149 C 427.675 149, 427 149.177, 427 149.393 M 267 204 C 265.718 204.828, 265.754 204.972, 267.250 204.985 C 268.212 204.993, 269 204.550, 269 204 C 269 202.780, 268.887 202.780, 267 204 M 248.500 210 C 245.750 211.015, 244.123 211.880, 244.884 211.922 C 246.810 212.030, 254.298 209.840, 255.450 208.831 C 256.990 207.483, 253.922 207.999, 248.500 210 M 257 212.561 C 243.436 216.859, 240.246 217.948, 236.032 219.718 C 234.124 220.520, 228.274 222.261, 223.032 223.587 C 214.045 225.861, 211 227.630, 211 230.578 C 211 231.235, 212.238 231.986, 213.750 232.247 C 223.893 233.995, 263.094 242.475, 266.365 243.629 C 268.733 244.464, 270.728 244.672, 271.261 244.139 C 271.795 243.605, 271.721 237.308, 271.081 228.682 C 270.486 220.676, 270 212.972, 270 211.563 C 270 208.434, 270.030 208.432, 257 212.561 M 240 213 C 238.707 213.835, 238.734 213.971, 240.191 213.985 C 241.121 213.993, 242.160 213.550, 242.500 213 C 243.282 211.734, 241.958 211.734, 240 213 M 234.500 215 C 233.181 215.567, 233.011 215.878, 234 215.914 C 234.825 215.945, 236.175 215.533, 237 215 C 238.828 213.819, 237.249 213.819, 234.500 215 M 221.500 219 C 217.100 220.564, 213.863 221.879, 214.307 221.922 C 215.899 222.076, 224.519 219.711, 225.450 218.864 C 225.972 218.389, 227.408 218, 228.641 218 C 229.874 218, 231.160 217.550, 231.500 217 C 232.453 215.458, 230.196 215.909, 221.500 219 M 209.500 224 C 209.840 224.550, 210.316 225, 210.559 225 C 210.802 225, 211 224.550, 211 224 C 211 223.450, 210.523 223, 209.941 223 C 209.359 223, 209.160 223.450, 209.500 224 M 374.665 304.047 C 368.649 305.057, 359.735 310.328, 355.901 315.144 C 353.364 318.331, 352.214 321, 353.378 321 C 353.586 321, 355.428 320.301, 357.471 319.448 C 361.950 317.576, 366.768 317.441, 391.574 318.489 L 410.647 319.295 412.920 316.898 C 417.483 312.083, 417.568 306.445, 413.114 304.061 C 410.805 302.825, 382.004 302.815, 374.665 304.047 M 456.179 305.137 C 452.698 306.140, 450.003 310.535, 449.997 315.218 C 449.996 316.473, 448.444 320.071, 446.550 323.213 C 442.970 329.150, 441.400 334.669, 442.729 336.650 C 443.198 337.349, 447.511 337.937, 453.740 338.150 C 464.442 338.516, 465 338.309, 465 333.977 C 465 332.955, 465.441 331.846, 465.979 331.513 C 467.127 330.804, 471.178 332.749, 472.225 334.512 C 472.964 335.756, 477.644 335.385, 478.491 334.014 C 479.986 331.596, 468.132 327, 460.401 327 C 458.072 327, 454.040 327.911, 451.441 329.025 C 448.843 330.139, 446.468 330.801, 446.164 330.497 C 444.914 329.248, 449.911 326.036, 456 324.174 C 461.296 322.555, 461.910 322.170, 459.315 322.094 C 457.563 322.042, 454.976 322.439, 453.565 322.975 C 451.947 323.591, 451 323.598, 451 322.994 C 451 322.010, 451.654 321.815, 461 320.025 C 464.025 319.446, 467.625 318.724, 469 318.422 C 470.375 318.119, 474.322 317.613, 477.770 317.297 L 484.041 316.723 483.493 312.160 C 482.601 304.726, 481.325 303.985, 469.595 304.090 C 464.043 304.140, 458.006 304.611, 456.179 305.137 M 375.985 330.515 C 367.553 333.231, 364.354 335.146, 365.406 336.848 C 366.482 338.589, 373.945 338.308, 374.638 336.500 C 375.317 334.730, 378.574 334.501, 379.594 336.152 C 379.985 336.785, 379.476 337.910, 378.462 338.652 C 376.839 339.838, 377.331 339.999, 382.559 339.988 C 388.270 339.976, 388.590 339.837, 390.819 336.397 C 392.731 333.445, 393.564 332.925, 395.570 333.428 C 396.907 333.764, 400.139 334.329, 402.751 334.685 C 407.261 335.298, 407.425 335.239, 406 333.507 C 401.231 327.709, 388.604 326.450, 375.985 330.515 M 293.750 330.729 C 291.861 331.180, 291.313 333, 293.067 333 C 295.250 333, 300.886 338.228, 302.024 341.310 C 302.672 343.065, 303.413 343.957, 303.670 343.294 C 304.345 341.551, 299.820 332.936, 297.483 331.517 C 296.393 330.854, 294.712 330.500, 293.750 330.729 M 449.667 333.667 C 448.516 334.817, 448.938 336, 450.500 336 C 451.325 336, 452 335.325, 452 334.500 C 452 332.938, 450.817 332.516, 449.667 333.667 M 402 338 C 402 338.550, 402.450 339, 403 339 C 403.550 339, 404 338.550, 404 338 C 404 337.450, 403.550 337, 403 337 C 402.450 337, 402 337.450, 402 338 M 407.295 406.939 C 390.402 407.927, 388.990 408.687, 389.025 416.773 C 389.062 425.454, 394.413 440, 397.569 440 C 398.403 440, 401.429 438.276, 404.293 436.169 C 407.157 434.062, 412.538 430.215, 416.250 427.619 C 419.962 425.023, 423 422.502, 423 422.017 C 423 421.532, 422.066 420.838, 420.925 420.476 C 417.137 419.274, 419.706 418.837, 433.167 418.394 C 440.500 418.153, 447.512 417.732, 448.750 417.459 C 452.325 416.669, 451.358 418.741, 447.500 420.136 C 445.575 420.832, 444 421.749, 444 422.173 C 444 423.992, 454.577 436.036, 455.943 435.772 C 458.060 435.365, 460.867 425.607, 460.939 418.405 C 461.006 411.740, 459.981 410.084, 454.503 408.001 C 450.654 406.538, 424.301 405.945, 407.295 406.939 M 298.500 448.080 C 296.850 448.574, 292.811 451.007, 289.523 453.487 C 286.236 455.966, 282.164 458.451, 280.474 459.009 C 272.606 461.605, 237.846 481.065, 221.500 492.025 C 217.650 494.606, 208.425 500.653, 201 505.461 C 177.762 520.512, 170.419 530.131, 169.260 547.041 C 168.957 551.452, 169.112 554.998, 169.607 554.995 C 170.098 554.993, 172.416 551.280, 174.757 546.745 C 183.106 530.573, 190.638 523.548, 203 520.401 C 225.167 514.757, 257.721 528.258, 283.332 553.715 C 293.668 563.989, 312.396 592.113, 323.144 613.500 C 327.566 622.300, 331.293 629.612, 331.425 629.750 C 331.660 629.993, 417.755 630.354, 419.252 630.119 C 419.666 630.053, 417.796 625.612, 415.095 620.250 C 412.395 614.888, 406.965 603.525, 403.027 595 C 399.089 586.475, 394.365 576.800, 392.529 573.500 C 390.693 570.200, 386.250 561.650, 382.655 554.500 C 378.934 547.099, 374.047 539.100, 371.309 535.928 C 366.819 530.726, 354.045 518.684, 339.669 506.100 C 327.453 495.407, 304.626 473.372, 299.383 467.211 L 294.031 460.923 298.515 455.211 C 302.666 449.924, 304.070 446.871, 302.250 447.090 C 301.837 447.140, 300.150 447.585, 298.500 448.080 M 353.802 487.224 C 354.519 488.108, 358.794 491.627, 363.302 495.043 C 367.830 498.475, 369.933 499.720, 368 497.825 C 363.949 493.853, 351.862 484.828, 353.802 487.224 M 435.612 507.469 C 434.700 508.861, 434.306 510, 434.736 510 C 435.710 510, 438.298 505.965, 437.705 505.371 C 437.466 505.133, 436.525 506.077, 435.612 507.469 M 443.655 527.829 C 441.653 530.041, 441.508 531.403, 443.350 530.696 C 444.653 530.196, 452.929 531.517, 456 532.715 C 458.419 533.659, 461 534.032, 461 533.437 C 461 532.983, 446.539 526, 445.600 526 C 445.440 526, 444.565 526.823, 443.655 527.829 M 456.637 593.952 C 455.001 594.526, 454.971 594.731, 456.355 595.880 C 458.115 597.341, 461.149 597.056, 461.708 595.377 C 462.176 593.970, 459.072 593.098, 456.637 593.952 M 513.283 645.963 C 519.181 647.106, 542.317 647.159, 544 646.033 C 545.028 645.346, 539.834 645.062, 527.500 645.130 C 516.810 645.190, 511.036 645.528, 513.283 645.963" stroke="none" fill="black" fill-rule="evenodd"/>
</svg>